# xmcd
#
# Track frame offsets: 
#        150
#        13615
#        27336
#        40967
#        52516
#        67132
#        80946
#        90846
#        101847
#        111690
#
# Disc length: 1620 seconds
#
# Revision: 4
# Processed by: cddbd v1.5.2PL0 Copyright (c) Steve Scherf et al.
# Submitted via: ExactAudioCopy v1.0b3
#
DISCID=8106520a
DTITLE=Williams, Larry - Specialty Profiles - Larry Williams [Disc 2]
DYEAR=2006
DGENRE=Rock 'n' Roll
TTITLE0=Milton, Roy and His Solid Senders - R.M. Blues
TTITLE1=Liggins, Joe and The Honeydrippers - Pink Champagne
TTITLE2=Mayfield, Percy - Please Send Me Someone To Love
TTITLE3=Price, Lloyd - Lawdy Miss Clawdy
TTITLE4=Jesse and Marvin - Dream Girl
TTITLE5=Guitar Slim - The Things That I Used To Do
TTITLE6=Little Richard - Long Tall Sally
TTITLE7=Cooke, Sam - I'll Come Running Back To You
TTITLE8=Don and Dewey - Leavin' It All Up To You
TTITLE9=Dizzy, Miss Lizzy
EXTD=
EXTT0=
EXTT1=
EXTT2=
EXTT3=
EXTT4=
EXTT5=
EXTT6=
EXTT7=
EXTT8=
EXTT9=
PLAYORDER=
